<mxfile host="app.diagrams.net" modified="2023-12-21T10:14:32.181Z" agent="Mozilla/5.0 (Windows NT 10.0; Win64; x64; rv:121.0) Gecko/20100101 Firefox/121.0" version="22.1.11" etag="d8wIRYtnr5GwJfqMQ_Xz" type="github">
  <diagram name="Page-1" id="HwcmGlPsISgs4Bj5_MT0">
    <mxGraphModel>
      <root>
        <mxCell id="0" />
        <mxCell id="1" parent="0" />
      </root>
    </mxGraphModel>
  </diagram>
</mxfile>
